<svg xmlns="http://www.w3.org/2000/svg" width="1200" height="620" viewBox="0 0 1200 620">
  <defs>
    <filter id="shadow" x="-20%" y="-20%" width="140%" height="150%">
      <feDropShadow dx="0" dy="16" stdDeviation="10" flood-color="#8b4b20" flood-opacity="0.28"/>
    </filter>
    <linearGradient id="orangeText" x1="0" y1="0" x2="0" y2="1">
      <stop offset="0" stop-color="#ffd84f"/>
      <stop offset="0.55" stop-color="#ff9f2f"/>
      <stop offset="1" stop-color="#f07822"/>
    </linearGradient>
    <linearGradient id="mintText" x1="0" y1="0" x2="0" y2="1">
      <stop offset="0" stop-color="#73ead2"/>
      <stop offset="1" stop-color="#25bda9"/>
    </linearGradient>
  </defs>
  <g filter="url(#shadow)">
    <rect x="85" y="105" width="1030" height="455" rx="76" fill="#fff8df" stroke="#ffad32" stroke-width="12"/>
    <rect x="115" y="135" width="970" height="395" rx="55" fill="#fffdf0" stroke="#ffda7a" stroke-width="5"/>
    <rect x="185" y="42" width="830" height="145" rx="42" fill="#fff8df" stroke="#ffad32" stroke-width="10"/>
    <g>
      <rect x="210" y="62" width="110" height="120" rx="26" fill="#ff8b31"/>
      <rect x="320" y="62" width="110" height="120" rx="26" fill="#61cfb8"/>
      <rect x="430" y="62" width="110" height="120" rx="26" fill="#ff8b31"/>
      <rect x="540" y="62" width="110" height="120" rx="26" fill="#61cfb8"/>
      <rect x="650" y="62" width="110" height="120" rx="26" fill="#ff8b31"/>
      <rect x="760" y="62" width="110" height="120" rx="26" fill="#61cfb8"/>
      <rect x="870" y="62" width="110" height="120" rx="26" fill="#ff8b31"/>
    </g>
    <rect x="175" y="176" width="850" height="36" rx="18" fill="#ffbd3d" stroke="#d57924" stroke-width="5"/>
    <text x="600" y="345"
          text-anchor="middle"
          font-family="Jua, 'Arial Rounded MT Bold', 'Malgun Gothic', 'Apple SD Gothic Neo', sans-serif"
          font-size="150"
          font-weight="900"
          letter-spacing="4"
          fill="url(#orangeText)"
          stroke="#ffffff"
          stroke-width="24"
          paint-order="stroke fill">오늘도</text>
    <text x="600" y="500"
          text-anchor="middle"
          font-family="Jua, 'Arial Rounded MT Bold', 'Malgun Gothic', 'Apple SD Gothic Neo', sans-serif"
          font-size="134"
          font-weight="900"
          letter-spacing="2"
          fill="url(#orangeText)"
          stroke="#ffffff"
          stroke-width="22"
          paint-order="stroke fill">정상영업</text>
    <text x="600" y="345"
          text-anchor="middle"
          font-family="Jua, 'Arial Rounded MT Bold', 'Malgun Gothic', 'Apple SD Gothic Neo', sans-serif"
          font-size="150"
          font-weight="900"
          letter-spacing="4"
          fill="none"
          stroke="#b85520"
          stroke-width="6">오늘도</text>
    <text x="600" y="500"
          text-anchor="middle"
          font-family="Jua, 'Arial Rounded MT Bold', 'Malgun Gothic', 'Apple SD Gothic Neo', sans-serif"
          font-size="134"
          font-weight="900"
          letter-spacing="2"
          fill="none"
          stroke="#b85520"
          stroke-width="6">정상영업</text>
  </g>
  <path d="M89 290 L100 320 L130 331 L100 342 L89 372 L78 342 L48 331 L78 320 Z" fill="#fffdf2" stroke="#ffd84f" stroke-width="6"/>
  <path d="M1112 305 L1121 330 L1146 339 L1121 348 L1112 373 L1103 348 L1078 339 L1103 330 Z" fill="#fffdf2" stroke="#61cfb8" stroke-width="5"/>
</svg>
